# xmcd
#
# Track frame offsets:
#	150
#	17868
#	27408
#	39964
#	50611
#	61857
#	73730
#	85875
#	96160
#	109998
#
# Disc length: 1610 seconds
#
# Revision: 1
# Processed by: cddbd v1.5.2PL0 Copyright (c) Steve Scherf et al.
# Submitted via: EZCDAudioConverter 2.4.0.1
#
DISCID=8306480a
DTITLE=Rose Maddox - Rosie
DYEAR=1970
DGENRE=Country
TTITLE0=Faded Love
TTITLE1=The Bigger the Pride
TTITLE2=Get It Over
TTITLE3=I Still Believe In Tomorrow
TTITLE4=Goodbye On Your Mind
TTITLE5=Rocky Top
TTITLE6=All I Have To Offer You is Me
TTITLE7=The Key's In the Mailbox
TTITLE8=I'm Happy Everyday I Live
TTITLE9=Philadelphia Lawyer
EXTD=
EXTT0=
EXTT1=
EXTT2=
EXTT3=
EXTT4=
EXTT5=
EXTT6=
EXTT7=
EXTT8=
EXTT9=
PLAYORDER=
